<svg xmlns="http://www.w3.org/2000/svg" width="20.63" height="19.719" viewBox="0 0 20.63 19.719">
  <defs>
    <style>
      .cls-1 {
        fill: #ffffff;
        fill-rule: evenodd
      }
    </style>
  </defs>
  <path id="Корзина" class="cls-1" d="M20.58 4.43l-1.21 8.91a2.025 2.025 0 0 1-1.88 1.636H6.61a2.025 2.025 0 0 1-1.88-1.635L3.26 3.055A3.736 3.736 0 0 1 3.13 2H1a1 1 0 0 1 0-2h4a.992.992 0 0 1 .1 1.98h13.97c1.1 0 1.77 1.13 1.51 2.45zM6.73 12.945l-1.31-9h13.2l-.03.2-1.18 8.788a.033.033 0 0 0-.01.014H6.73zm.52 3.01a1.874 1.874 0 1 1-1.88 1.873 1.874 1.874 0 0 1 1.88-1.874zm9 0a1.874 1.874 0 1 1-1.88 1.873 1.874 1.874 0 0 1 1.88-1.874z"/>
</svg>
