<svg xmlns="http://www.w3.org/2000/svg" width="153.094" height="63.25" viewBox="0 0 153.094 63.25">
  <defs>
    <style>
      .cls-1 {
        fill: #ffffff;
        fill-rule: evenodd;
      }
    </style>
  </defs>
  <path id="Logo" class="cls-1" d="M150.502 44.64c-1.742-1.856-4.228-2.08-7-2.08h-.236a13.545 13.545 0 0 0-8.977-4.4c-3.5-.228-6.364-.226-8.836.83.083-.67.152-1.546.21-2.224a4.274 4.274 0 0 0 1.634.21c3.068 0 6.287-2.583 6.567-8.247.133-3.126-.38-5.412-1.485-6.564a2.663 2.663 0 0 0-1.943-.867c-1.647 0-3.19 1.442-4.394 4.055 0-.286-.007-.54-.01-.77-.01-.478-.016-.872-.016-1.313 0-1.105-.053-1.73-1.137-1.73a1.533 1.533 0 0 0-1.08.48 2.56 2.56 0 0 0-.607 1.938c.027 1.384.032 2.785.016 4.28-.5 2.246-1.406 4.012-2.34 4.7a17.468 17.468 0 0 0 1.113-4.253c.416-3.022-.042-5.638-1.227-7a2.1 2.1 0 0 0-1.986-.818 3.606 3.606 0 0 0-2.11 1.258.94.94 0 0 0-1.25-.34c-2.582 1.02-4.223 4.026-4.39 8.037a8.055 8.055 0 0 0 1.885 5.987 4.312 4.312 0 0 0 3.153 1.4 4.586 4.586 0 0 0 3.656-2.164 4.58 4.58 0 0 0 3.352-2.005c-.12 2.493-.31 4.94-.567 7.3a17.977 17.977 0 0 0-5.192 6.54c-1.982 3.934-1.764 7.546-.722 9.24a2.032 2.032 0 0 0 1.677 1.113c3.09 0 5.57-8.574 6.777-16.015a14.878 14.878 0 0 1 8.433-1.97 11.58 11.58 0 0 1 6.81 2.185 8.432 8.432 0 0 0-5.887 7.093 5.578 5.578 0 0 0 1.123 4.43 4.186 4.186 0 0 0 3.51 1.395 6.062 6.062 0 0 0 4.353-2.008 8.59 8.59 0 0 0 1.85-6.372 9.2 9.2 0 0 0-.606-2.767c3.908.64 6.258 3.985 6.055 8.758a10.014 10.014 0 0 1-9.894 9.407c-3 0-5.2-.733-6.357-2.12a4.525 4.525 0 0 1-.872-3.77c.03-.145.058-.27.083-.38a1.043 1.043 0 0 0-.05-.95.643.643 0 0 0-.532-.237 1.715 1.715 0 0 0-.386.055 3.443 3.443 0 0 0-2.48 3.194c0 2.937 3.13 6.1 10 6.1 7.14 0 12.436-4.33 12.886-11.1a9.516 9.516 0 0 0-2.576-7.523zM115.544 24.1a12.444 12.444 0 0 0-.58 5.412 6.58 6.58 0 0 0 2.586 4.92 1.513 1.513 0 0 1-2.04-.336 6.59 6.59 0 0 1-1.287-4.74 10.554 10.554 0 0 1 1.32-5.255zm4.38 4.74a9.743 9.743 0 0 1-1.007 4.13c-1.17-.72-1.665-2.5-1.726-3.915-.125-2.524.94-4.694 1.79-4.938a.338.338 0 0 1 .2.126c.47.498.902 2.148.745 4.597zm7.33 6.1a2.2 2.2 0 0 1-1.395-.39l.063-1.028c1.053-6.795 3.108-9.673 3.748-9.673a.317.317 0 0 1 .245.13c.457.487.87 2.162.657 5.4-.248 3.485-1.49 5.563-3.322 5.563zm-8.34 19.087a.425.425 0 0 1-.28-.233c-.485-.785-.56-3.245 1.22-6.806a15.363 15.363 0 0 1 2.14-3.214c-1.037 6.638-2.496 9.973-3.08 10.257zm22.624-2.78a2.756 2.756 0 0 1-2.037.917h-.105a2.408 2.408 0 0 1-1.9-.837 3.858 3.858 0 0 1-.583-3.126 5.928 5.928 0 0 1 4.95-5 7.025 7.025 0 0 1 1.012 3.343 6.338 6.338 0 0 1-1.336 4.71zm-30.7-14.2c-.706-.256-1.436-1.93-.9-8.442.288-3.707.407-5.85-.485-6.815a1.625 1.625 0 0 0-1.243-.51c-2.142 0-4.206 2.607-5.643 5.732a62.808 62.808 0 0 1 .46-6.927 10.828 10.828 0 0 0 5.12-5.162c1.818-3.574 1.583-7.38.41-9.294a2.047 2.047 0 0 0-1.662-1.147c-2.716 0-5.23 5.687-6.433 14.523a8.745 8.745 0 0 1-3.616.077 5.49 5.49 0 0 1-.89-.235 6.814 6.814 0 0 0 2.914-5.475 5.952 5.952 0 0 0-1.413-4.5 7.23 7.23 0 0 0-5.263-2.1c-.12 0-.24-.006-.362-.006-4.45 0-9.15 2.4-9.528 6.99-.385 4.035 3.193 6.386 6.652 8.66l.7.456c3.306 2.22 6.235 4.527 5.763 8.348-.384 3.135-4.335 5.66-8.543 5.333a7.315 7.315 0 0 1-5.2-2.563 6.725 6.725 0 0 1-1.432-5.144c.266-1.976 1.128-3.487 3.093-5.41a1.247 1.247 0 0 0 .507-1.26.773.773 0 0 0-.986-.382 8.416 8.416 0 0 0-3.022 1.227 7.593 7.593 0 0 0-2.288 5.184c-.237 4.214 1.93 9.557 8.814 10.745a12.46 12.46 0 0 0 2.09.178c5.607 0 10.064-3.777 10.37-8.787.27-4.7-3.352-7.338-6.772-9.45l-.375-.225c-3.318-2.01-6.453-3.908-5.965-7.635.385-2.85 3.11-4.125 5.637-4.125.178 0 .357.006.538.018 2.8.18 4.368 1.782 4.41 4.513a4.36 4.36 0 0 1-1.048 3.076 1.483 1.483 0 0 1-.984.5.982.982 0 0 1-.833-.66 3.935 3.935 0 0 1-.064-2.18l.08-.25a1.078 1.078 0 0 0 .04-1.033.64.64 0 0 0-.54-.255 1.82 1.82 0 0 0-.39.053 3.03 3.03 0 0 0-2.287 2.588c-.086 2.378 1.342 5.12 5.606 5.69a14.436 14.436 0 0 0 4.373-.04 97.66 97.66 0 0 0-.52 7.89c-.035 1.627-.062 2.582-.082 3.3-.03 1.08-.045 1.618-.045 3.075 0 1.247.184 1.69 1.22 1.69.57 0 1.55-.478 1.6-2.208 1.03-6.823 3.85-10.595 4.577-10.633a6.662 6.662 0 0 1-.06 2.077c-.1.95-.22 2.13-.25 3.55-.125 5.843 1.006 8.81 3.452 9.075 1.21.15 1.436-.4 1.482-.624a.98.98 0 0 0-.787-1.065zm-7.488-19.313c.975-6.274 2.444-9.84 2.99-10.085a.777.777 0 0 1 .29.407 8.868 8.868 0 0 1-.815 6.674 8.174 8.174 0 0 1-2.465 3.004zm-25.743 4.34l-.15-.19a.974.974 0 0 0-.822-.29c-.87 0-2.3.417-2.428 1.513-.12.765-.25 2.065-.342 3.452-.653 5.233-2.2 8.13-3.025 8.13a.924.924 0 0 1-.733-.342c-1.068-1.212-1.183-5.218-.34-11.9l.016-.272-.15-.173a.967.967 0 0 0-.775-.255c-.882 0-2.33.42-2.46 1.553a39.062 39.062 0 0 0-.19 6.828c-.592 1.9-1.92 4.984-4.316 4.984a2.366 2.366 0 0 1-1.7-.787 7.23 7.23 0 0 1-1.485-5.14c.162-3.7 1.283-6.604 2.554-6.604a.718.718 0 0 1 .66.287c.4.57.228 1.958-.153 3.028l-.085.226a1.107 1.107 0 0 0-.088 1.072.753.753 0 0 0 .9.215c.746-.14 2.27-.94 2.4-1.938a5.186 5.186 0 0 0-1.028-3.69 2.91 2.91 0 0 0-2.227-.92c-3.25 0-5.89 3.8-6.143 8.84-.01.322-.008.635 0 .94-.887 3.468-1.614 4.68-1.9 4.94-.238-.4-.552-2.322.433-7.49l.02-.278-.15-.173a1.1 1.1 0 0 0-.864-.278 2.166 2.166 0 0 0-2.286 1.416 7.615 7.615 0 0 0-.1.873l-.024.316c-.553 3.1-1.664 4.722-2.477 4.722a.7.7 0 0 1-.442-.28c-.668-.755-1.243-2.725-.93-5.267.41-3.415 1.8-5.71 3.45-5.71a1.205 1.205 0 0 1 1.006.332 2.29 2.29 0 0 1-.076 1.838l-.05.135a1.29 1.29 0 0 0-.116 1.23.818.818 0 0 0 .9.233c.75-.14 2.27-1.026 2.4-2.03a3.173 3.173 0 0 0-.82-2.4 3.752 3.752 0 0 0-2.86-1.063c-2.827 0-6.365 2.14-7.02 8.2-1.06 3.52-2.406 5.16-2.982 5.16-.762 0-1.956-2.253-2.252-7.256a51.587 51.587 0 0 0 5.367-12.887c.824-3.547 1.377-9.306.025-11.01a1.36 1.36 0 0 0-1.09-.558c-3.947 0-7.127 12.153-7.67 20.868a27.226 27.226 0 0 0 .06 4.037c-.885 4.186-2.55 6.852-3.316 6.852-.716 0-1.84-2.135-2.122-6.88a49.19 49.19 0 0 0 5.112-12.273c.786-3.385 1.31-8.88.018-10.51a1.32 1.32 0 0 0-1.057-.54c-3.774 0-6.81 11.59-7.328 19.9-.348 6.01 1.305 10.022 2.826 11.634a2.95 2.95 0 0 0 2.084 1.07c1.842 0 3.5-2.5 4.574-5.107.963 3.124 2.6 5.128 4.282 5.128 1.282 0 2.66-1.237 3.876-3.44.728 2.06 2.158 3.127 3.394 3.127.054 0 .11 0 .17-.007 1.18-.1 2.307-1.015 3.258-2.606.384 2.14 1.215 3.414 2.3 3.414 1.318 0 2.43-1.845 3.23-3.77a5.525 5.525 0 0 0 4.9 3.387c2.064 0 4.04-1.472 5.54-4.09.923 3.045 2.593 3.54 3.58 3.54s1.944-.713 2.813-2.05l-.03.277a29.308 29.308 0 0 0-5.63 9.63c-1.05 2.934-1.024 6.06.063 7.604a1.932 1.932 0 0 0 1.6.912c1.85 0 4.65-2.534 7.58-24.44.46-3.18.8-6.652.8-6.652zm-47.986 1.99c.36-6.166 2.416-14.456 3.45-15.847.29.88.34 4.073-.64 7.848a55.09 55.09 0 0 1-2.81 7.998zm8.742-.49c.36-6.57 2.574-15.467 3.662-16.825.32.862.4 4.25-.656 8.3a58.077 58.077 0 0 1-3.006 8.525zM72.63 39.167c-1.115 7.68-2.342 10.906-2.905 11.133a.517.517 0 0 1-.31-.25c-.467-.67-.615-2.33.367-4.974a35.705 35.705 0 0 1 2.848-5.91zm-13.05 2.2a1.142 1.142 0 0 0-.67-.317.758.758 0 0 0-.66.562 4.948 4.948 0 0 1-.244.473c-.598 1.077-2.534 1.627-5.756 1.627a88.1 88.1 0 0 1-13.18-1.5c-5.3-.9-11.343-1.86-16.307-2.207a105.26 105.26 0 0 0 2.025-15.693c0-.594-.9-.727-1.22-.727-.4 0-1.707.165-1.785 2.288l-.133 2.553c-.466 2.514-1.867 6.76-6.016 6.964-.093 0-.185.007-.277.007a5.248 5.248 0 0 1-4.08-1.842C9.31 31.332 8.48 27.187 9.06 22.467a25.25 25.25 0 0 1 1.08-4.794c6.622-.152 12.935-3.16 14.47-6.93a4.17 4.17 0 0 0-.194-3.95c-.9-1.34-2.717-1.935-4.95-1.635-4.624.6-9.214 4.48-11.788 9.94-2.91-.824-5.416-3.3-4.78-6.646.918-4.905 7.433-6.508 9.575-6.508a1.886 1.886 0 0 1 .627.07 2.667 2.667 0 0 0 .93.17 1.052 1.052 0 0 0 1.162-.66C15.355.805 14.375.34 13.997.16a2.92 2.92 0 0 0-1.152-.173c-2.92 0-11.343 2.038-12.655 8.6a6.678 6.678 0 0 0 .917 5.222 9.34 9.34 0 0 0 5.666 3.548 23.98 23.98 0 0 0-1.224 5.5c-.54 4.97.537 9.365 2.955 12.06a8.38 8.38 0 0 0 6.408 2.82h.3a8.438 8.438 0 0 0 5.82-2.626 47.565 47.565 0 0 1-.823 4.79q-.544-.01-1.06-.01c-5.93 0-9.245 1.227-10.428 3.857a4.408 4.408 0 0 0 .28 4.363 6.276 6.276 0 0 0 5.22 2.765 5.97 5.97 0 0 0 .967-.08c3.22-.575 5.466-3.344 7.047-8.7a111.338 111.338 0 0 1 16.325 2.307c.975.2 1.958.412 2.94.62 5.34 1.138 10.385 2.21 14.054 2.21 2.11 0 3.572-.364 4.466-1.11a2.6 2.6 0 0 0 1.028-2.185 3.434 3.434 0 0 0-1.47-2.572zM15.494 48.2a3.36 3.36 0 0 1-1.092.19 2.614 2.614 0 0 1-2.33-1.3 2.947 2.947 0 0 1 .232-3.01c.54-.877 2.266-1.914 7.353-2-1.04 3.447-2.442 5.503-4.162 6.12zm3.33-40.608a4.8 4.8 0 0 1 .837-.08 1.728 1.728 0 0 1 1.5.617 2.407 2.407 0 0 1-.12 2.21c-1.31 2.743-6.05 4.725-10 5.038 1.948-4.166 5.017-7.258 7.784-7.786z"/>
</svg>
