<svg xmlns="http://www.w3.org/2000/svg" width="78.937" height="138.75" viewBox="0 0 78.937 138.75">
  <defs>
    <style>
      .cls-1 {
        fill: #e84d37;
        fill-rule:evenoddж
      }
    </style>
  </defs>
  <path id="Пин" class="cls-1" d="M56.558 74.37l-1.05 1.06-2.846-2.85a19.4 19.4 0 0 1-1.675-1.15 18.84 18.84 0 0 1-5.024 5.12 18.462 18.462 0 0 1-4.537 2.27l-1.945 1.95-1.178-1.18a19.422 19.422 0 0 1-2.86.22q-.544 0-1.082-.03l3.056 3.05-3.277 3.28-3.28-3.28 3.085-3.08a18.688 18.688 0 0 1-3.5-.63l-1.65 1.65-3.276-3.28.347-.35a18.708 18.708 0 0 1-2.41-1.72v.01l-.04-.05a18.622 18.622 0 0 1-1.932-1.89 15.91 15.91 0 0 1-5.61 1.7l21.4 60.96c.608 1.73 1.41 2.6 2.212 2.6s1.6-.87 2.212-2.6l21.366-60.88c-.237.01-.475.02-.714.02a18.41 18.41 0 0 1-5.794-.92zm-6.393-.16l3.277 3.28-3.277 3.28-3.277-3.28zm-5.342 5.34l3.277 3.28-3.277 3.28-3.278-3.28zm-8.62 19.31l3.278-3.28 3.278 3.28-3.277 3.28zm6.555 10.68l-3.277 3.28-3.277-3.28 3.278-3.27zm-1.213-16.02l3.278-3.28 3.277 3.28-3.277 3.27zM39.48 84.9l3.278 3.27-3.277 3.28-3.277-3.28zm-2.064 8.62l-3.278 3.27-3.277-3.27 3.28-3.28zM23.128 79.88l.326-.33 3.278 3.28-1.9 1.9zm2.776 7.91l2.892-2.89 3.277 3.27-3.277 3.28-2.475-2.47zm2.776 7.91l.116-.12 3.277 3.28-1.69 1.69zm3.42 9.74l-.644-1.83 2.682-2.69 3.278 3.28-3.277 3.28zm2.233 6.36l3.083 3.09-1.48 1.48zm5.148 14.67l-2.473-7.05 2.474-2.47 2.474 2.47zm3.547-10.1l-1.482-1.48 3.084-3.09zm3.835-10.93l-2.04 2.04-3.277-3.28 3.278-3.28 2.682 2.69zm1.716-4.89l-1.69-1.69 3.277-3.28.116.12zm4.063-11.57l-2.475 2.47-3.277-3.28 3.277-3.27 2.892 2.89zm1.49-4.25l-1.9-1.9 3.277-3.28.326.33zm19.416-40.28a35.242 35.242 0 1 0-67.118 2.97 14.063 14.063 0 1 0 15.514 23.46 16.66 16.66 0 0 0 13.484 6.92 16.608 16.608 0 0 0 14.727-8.94l.668-.21a16.6 16.6 0 1 0 22.726-24.2zM62.33 66.99a10.237 10.237 0 0 1-8.132-3.97 3.14 3.14 0 0 0-3.675-.97 27.73 27.73 0 0 1-3.442 1.16 3.163 3.163 0 0 0-2.093 1.86 10.31 10.31 0 0 1-19.255-.35 3.14 3.14 0 0 0-2.487-2.03 2.48 2.48 0 0 0-.468-.04 3.153 3.153 0 0 0-2.508 1.25 7.77 7.77 0 1 1-8.77-12.01 3.152 3.152 0 0 0 1.807-4.31 28.95 28.95 0 1 1 53.635-3.01 3.144 3.144 0 0 0 1.2 3.6 10.307 10.307 0 0 1-5.81 18.82z"/>
</svg>
